<svg viewBox="0 0 1060 660" xmlns="http://www.w3.org/2000/svg" role="img" font-family="-apple-system, BlinkMacSystemFont, 'Segoe UI', sans-serif">
  <title>Zalyx Agent Society — Architecture Diagram</title>
  <desc>Five-agent debate pipeline with MCP server, powered by Qwen Cloud</desc>
  <rect width="1060" height="660" fill="#0f1117"/>
  <text x="530" y="28" text-anchor="middle" fill="#f8fafc" font-size="15" font-weight="700">Zalyx Agent Society — Architecture</text>
  <text x="530" y="46" text-anchor="middle" fill="#64748b" font-size="11">Multi-Agent Merchant Underwriting · Qwen Cloud Hackathon Track 3 · MCP Integration</text>

  <!-- Browser -->
  <rect x="20" y="72" width="130" height="50" rx="10" fill="#1a1d27" stroke="#3d4166" stroke-width="1.5"/>
  <text x="85" y="93" text-anchor="middle" fill="#e2e8f0" font-size="12" font-weight="600">🌐 Browser</text>
  <text x="85" y="109" text-anchor="middle" fill="#64748b" font-size="10">React + Vite UI</text>

  <!-- ECS boundary -->
  <rect x="165" y="58" width="530" height="560" rx="12" fill="none" stroke="#f97316" stroke-width="1.5" stroke-dasharray="6,4" opacity="0.6"/>
  <text x="180" y="76" fill="#f97316" font-size="10" font-weight="700" opacity="0.8">Alibaba Cloud ECS</text>

  <!-- Express -->
  <rect x="185" y="68" width="150" height="50" rx="10" fill="#1a1d27" stroke="#6366f1" stroke-width="1.5"/>
  <text x="260" y="89" text-anchor="middle" fill="#e2e8f0" font-size="12" font-weight="600">⚙️ Express API</text>
  <text x="260" y="105" text-anchor="middle" fill="#64748b" font-size="10">Node.js · SSE stream</text>

  <!-- Orchestrator -->
  <rect x="185" y="140" width="150" height="50" rx="10" fill="#1a1d27" stroke="#8b5cf6" stroke-width="1.5"/>
  <text x="260" y="161" text-anchor="middle" fill="#e2e8f0" font-size="12" font-weight="600">🧠 Orchestrator</text>
  <text x="260" y="177" text-anchor="middle" fill="#64748b" font-size="10">Routes · Debate logic</text>

  <!-- Agents column -->
  <!-- Data Quality -->
  <rect x="390" y="82" width="210" height="44" rx="9" fill="#1a1d27" stroke="#6366f1" stroke-width="1.5"/>
  <rect x="390" y="82" width="6" height="44" rx="3" fill="#6366f1"/>
  <text x="502" y="100" text-anchor="middle" fill="#e2e8f0" font-size="11" font-weight="600">🔍 Data Quality Agent</text>
  <text x="502" y="116" text-anchor="middle" fill="#64748b" font-size="9.5">Completeness · Anomaly detection</text>

  <!-- Business Analysis -->
  <rect x="390" y="144" width="210" height="44" rx="9" fill="#1a1d27" stroke="#10b981" stroke-width="1.5"/>
  <rect x="390" y="144" width="6" height="44" rx="3" fill="#10b981"/>
  <text x="502" y="162" text-anchor="middle" fill="#e2e8f0" font-size="11" font-weight="600">📈 Business Analysis Agent</text>
  <text x="502" y="178" text-anchor="middle" fill="#64748b" font-size="9.5">Health score · Revenue trajectory</text>

  <!-- Debate box -->
  <rect x="378" y="200" width="234" height="148" rx="10" fill="none" stroke="#f59e0b" stroke-width="1.5" stroke-dasharray="5,3" opacity="0.7"/>
  <text x="495" y="216" text-anchor="middle" fill="#f59e0b" font-size="9.5" font-weight="700" opacity="0.9">⚔️ DEBATE ROUND (conditional)</text>

  <!-- Risk Challenge -->
  <rect x="390" y="222" width="210" height="40" rx="8" fill="#1a1d27" stroke="#f59e0b" stroke-width="1.5"/>
  <rect x="390" y="222" width="6" height="40" rx="3" fill="#f59e0b"/>
  <text x="502" y="239" text-anchor="middle" fill="#e2e8f0" font-size="11" font-weight="600">⚠️ Risk Agent — Challenge</text>
  <text x="502" y="253" text-anchor="middle" fill="#64748b" font-size="9.5">Challenges business analyst</text>

  <line x1="495" y1="263" x2="495" y2="276" stroke="#f59e0b" stroke-width="1.5" stroke-dasharray="3,2" opacity="0.6"/>

  <rect x="390" y="277" width="100" height="34" rx="7" fill="#1a1d27" stroke="#10b981" stroke-width="1.2"/>
  <text x="440" y="292" text-anchor="middle" fill="#e2e8f0" font-size="9.5" font-weight="600">📈 Rebuttal</text>
  <text x="440" y="304" text-anchor="middle" fill="#64748b" font-size="8.5">Defend/concede</text>

  <rect x="500" y="277" width="100" height="34" rx="7" fill="#1a1d27" stroke="#ef4444" stroke-width="1.2"/>
  <text x="550" y="292" text-anchor="middle" fill="#e2e8f0" font-size="9.5" font-weight="600">⚠️ Verdict</text>
  <text x="550" y="304" text-anchor="middle" fill="#64748b" font-size="8.5">Hold / concede</text>

  <line x1="490" y1="294" x2="500" y2="294" stroke="#f59e0b" stroke-width="1.5" opacity="0.7"/>
  <polygon points="498,291 502,294 498,297" fill="#f59e0b" opacity="0.7"/>

  <!-- Financing -->
  <rect x="390" y="360" width="210" height="44" rx="9" fill="#1a1d27" stroke="#3b82f6" stroke-width="1.5"/>
  <rect x="390" y="360" width="6" height="44" rx="3" fill="#3b82f6"/>
  <text x="502" y="378" text-anchor="middle" fill="#e2e8f0" font-size="11" font-weight="600">💰 Financing Structure Agent</text>
  <text x="502" y="394" text-anchor="middle" fill="#64748b" font-size="9.5">GTV-based Murabaha · Cost/sale price</text>

  <!-- Human Review -->
  <rect x="390" y="422" width="210" height="44" rx="9" fill="#1a1d27" stroke="#8b5cf6" stroke-width="1.5"/>
  <rect x="390" y="422" width="6" height="44" rx="3" fill="#8b5cf6"/>
  <text x="502" y="440" text-anchor="middle" fill="#e2e8f0" font-size="11" font-weight="600">👤 Human Review Agent</text>
  <text x="502" y="456" text-anchor="middle" fill="#64748b" font-size="9.5">Final decision · Merchant explanation</text>

  <!-- Baseline -->
  <rect x="390" y="486" width="210" height="44" rx="9" fill="#1a1d27" stroke="#475569" stroke-width="1.2" stroke-dasharray="4,3"/>
  <rect x="390" y="486" width="6" height="44" rx="3" fill="#475569"/>
  <text x="502" y="504" text-anchor="middle" fill="#94a3b8" font-size="11" font-weight="600">🎯 Baseline Agent (1 call)</text>
  <text x="502" y="520" text-anchor="middle" fill="#475569" font-size="9.5">Track 3 comparison · Parallel</text>

  <!-- MCP Server box -->
  <rect x="185" y="390" width="175" height="190" rx="10" fill="#0e1a14" stroke="#26C7C3" stroke-width="1.5"/>
  <text x="272" y="410" text-anchor="middle" fill="#26C7C3" font-size="11" font-weight="700">🔌 MCP Server</text>
  <text x="272" y="425" text-anchor="middle" fill="#64748b" font-size="9">stdio transport · SDK v1.29</text>
  <line x1="195" y1="432" x2="350" y2="432" stroke="#1e3a2e" stroke-width="1"/>

  <rect x="197" y="440" width="151" height="34" rx="6" fill="#0f2419" stroke="#26C7C3" stroke-width="1" opacity="0.8"/>
  <text x="272" y="454" text-anchor="middle" fill="#26C7C3" font-size="9.5" font-weight="600">check_cbn_compliance</text>
  <text x="272" y="466" text-anchor="middle" fill="#64748b" font-size="8.5">CBN/EFCC watchlist check</text>

  <rect x="197" y="482" width="151" height="34" rx="6" fill="#0f2419" stroke="#26C7C3" stroke-width="1" opacity="0.8"/>
  <text x="272" y="496" text-anchor="middle" fill="#26C7C3" font-size="9.5" font-weight="600">get_industry_benchmarks</text>
  <text x="272" y="508" text-anchor="middle" fill="#64748b" font-size="8.5">Sector GTV · active day norms</text>

  <rect x="197" y="524" width="151" height="34" rx="6" fill="#0f2419" stroke="#26C7C3" stroke-width="1" opacity="0.8"/>
  <text x="272" y="538" text-anchor="middle" fill="#26C7C3" font-size="9.5" font-weight="600">get_sector_default_rate</text>
  <text x="272" y="550" text-anchor="middle" fill="#64748b" font-size="8.5">Portfolio default rates by tier</text>

  <!-- Qwen Cloud box -->
  <rect x="740" y="100" width="290" height="390" rx="12" fill="#1a1d27" stroke="#f97316" stroke-width="1.5"/>
  <text x="885" y="126" text-anchor="middle" fill="#f97316" font-size="13" font-weight="700">☁️ Qwen Cloud</text>
  <text x="885" y="144" text-anchor="middle" fill="#64748b" font-size="9.5">Alibaba Cloud DashScope</text>
  <line x1="752" y1="152" x2="1018" y2="152" stroke="#2d3148" stroke-width="1"/>

  <text x="885" y="174" text-anchor="middle" fill="#94a3b8" font-size="10" font-weight="600">Chat completions</text>
  <rect x="760" y="182" width="250" height="22" rx="5" fill="#2d3148"/>
  <text x="885" y="197" text-anchor="middle" fill="#e2e8f0" font-size="9.5">Data Quality · Business Analysis agents</text>

  <text x="885" y="228" text-anchor="middle" fill="#94a3b8" font-size="10" font-weight="600">Function calling</text>
  <rect x="760" y="236" width="250" height="22" rx="5" fill="#2d3148"/>
  <text x="885" y="251" text-anchor="middle" fill="#e2e8f0" font-size="9.5">submit_risk_verdict</text>
  <rect x="760" y="262" width="250" height="22" rx="5" fill="#1e2235"/>
  <text x="885" y="277" text-anchor="middle" fill="#94a3b8" font-size="9.5">structure_murabaha_offer</text>
  <rect x="760" y="288" width="250" height="22" rx="5" fill="#1e2235"/>
  <text x="885" y="303" text-anchor="middle" fill="#94a3b8" font-size="9.5">issue_underwriting_decision</text>

  <line x1="752" y1="325" x2="1018" y2="325" stroke="#2d3148" stroke-width="1"/>
  <text x="885" y="346" text-anchor="middle" fill="#94a3b8" font-size="10" font-weight="600">Model</text>
  <rect x="800" y="354" width="170" height="22" rx="5" fill="#2d3148"/>
  <text x="885" y="369" text-anchor="middle" fill="#e2e8f0" font-size="9.5">qwen-max (default)</text>
  <text x="885" y="395" text-anchor="middle" fill="#64748b" font-size="9">configurable via QWEN_MODEL env</text>
  <text x="885" y="415" text-anchor="middle" fill="#64748b" font-size="9">dashscope-intl.aliyuncs.com</text>
  <text x="885" y="450" text-anchor="middle" fill="#f59e0b" font-size="10" font-weight="600">7 LLM calls total · stages 1-5 + baseline</text>
  <text x="885" y="468" text-anchor="middle" fill="#64748b" font-size="9">Stage 1+2 run in parallel</text>

  <!-- Arrows: Browser → Express -->
  <line x1="150" y1="97" x2="185" y2="97" stroke="#64748b" stroke-width="1.5" marker-end="url(#arr)"/>
  <text x="167" y="91" text-anchor="middle" fill="#475569" font-size="8.5">SSE</text>

  <!-- Express → Orchestrator -->
  <line x1="260" y1="118" x2="260" y2="140" stroke="#8b5cf6" stroke-width="1.5" marker-end="url(#arr)"/>

  <!-- Orchestrator → agents -->
  <line x1="335" y1="165" x2="390" y2="165" stroke="#64748b" stroke-width="1.5" marker-end="url(#arr)"/>

  <!-- Between agents -->
  <line x1="495" y1="126" x2="495" y2="144" stroke="#64748b" stroke-width="1.2" marker-end="url(#arr)"/>
  <line x1="495" y1="188" x2="495" y2="222" stroke="#64748b" stroke-width="1.2" marker-end="url(#arr)"/>
  <line x1="495" y1="312" x2="495" y2="360" stroke="#64748b" stroke-width="1.2" marker-end="url(#arr)"/>
  <line x1="495" y1="404" x2="495" y2="422" stroke="#64748b" stroke-width="1.2" marker-end="url(#arr)"/>

  <!-- MCP arrows from agents (teal dashed) -->
  <!-- Data Quality → MCP check_cbn -->
  <line x1="390" y1="100" x2="360" y2="457" stroke="#26C7C3" stroke-width="1.2" stroke-dasharray="4,3" opacity="0.7" marker-end="url(#arr-teal)"/>
  <!-- Business Analysis → MCP benchmarks -->
  <line x1="390" y1="162" x2="360" y2="499" stroke="#26C7C3" stroke-width="1.2" stroke-dasharray="4,3" opacity="0.7" marker-end="url(#arr-teal)"/>
  <!-- Risk Agent → MCP default rate -->
  <line x1="390" y1="242" x2="360" y2="541" stroke="#26C7C3" stroke-width="1.2" stroke-dasharray="4,3" opacity="0.7" marker-end="url(#arr-teal)"/>

  <!-- Agents → Qwen (orange dashed) -->
  <line x1="600" y1="104" x2="740" y2="190" stroke="#f97316" stroke-width="1" stroke-dasharray="4,3" opacity="0.5"/>
  <line x1="600" y1="166" x2="740" y2="220" stroke="#f97316" stroke-width="1" stroke-dasharray="4,3" opacity="0.5"/>
  <line x1="600" y1="242" x2="740" y2="260" stroke="#f97316" stroke-width="1" stroke-dasharray="4,3" opacity="0.5"/>
  <line x1="600" y1="382" x2="740" y2="290" stroke="#f97316" stroke-width="1" stroke-dasharray="4,3" opacity="0.5"/>
  <line x1="600" y1="444" x2="740" y2="305" stroke="#f97316" stroke-width="1" stroke-dasharray="4,3" opacity="0.5"/>
  <line x1="600" y1="508" x2="740" y2="390" stroke="#475569" stroke-width="1" stroke-dasharray="3,3" opacity="0.4"/>

  <!-- Orchestrator → Baseline (dashed) -->
  <line x1="260" y1="190" x2="260" y2="508" stroke="#475569" stroke-width="1" stroke-dasharray="3,3" opacity="0.5"/>
  <line x1="260" y1="508" x2="390" y2="508" stroke="#475569" stroke-width="1.2" stroke-dasharray="3,3" opacity="0.5" marker-end="url(#arr-gray)"/>

  <!-- Decision return path -->
  <line x1="260" y1="466" x2="260" y2="600" stroke="#34d399" stroke-width="1.5"/>
  <line x1="260" y1="600" x2="85" y2="600" stroke="#34d399" stroke-width="1.5"/>
  <line x1="85" y1="600" x2="85" y2="122" stroke="#34d399" stroke-width="1.5" marker-end="url(#arr-green)"/>
  <text x="172" y="613" text-anchor="middle" fill="#34d399" font-size="9" font-weight="600">Decision + Debate transcript</text>

  <!-- Legend -->
  <rect x="20" y="618" width="700" height="36" rx="8" fill="#1a1d27" stroke="#2d3148" stroke-width="1"/>
  <text x="35" y="632" fill="#64748b" font-size="9" font-weight="700">LEGEND</text>
  <line x1="80" y1="636" x2="105" y2="636" stroke="#f97316" stroke-width="1.5" stroke-dasharray="4,3" opacity="0.6"/>
  <text x="110" y="639" fill="#64748b" font-size="9">Qwen API calls</text>
  <line x1="200" y1="636" x2="225" y2="636" stroke="#26C7C3" stroke-width="1.5" stroke-dasharray="4,3" opacity="0.7"/>
  <text x="230" y="639" fill="#64748b" font-size="9">MCP tool calls</text>
  <line x1="310" y1="636" x2="335" y2="636" stroke="#475569" stroke-width="1.2" stroke-dasharray="3,3"/>
  <text x="340" y="639" fill="#64748b" font-size="9">Parallel baseline</text>
  <line x1="430" y1="636" x2="455" y2="636" stroke="#34d399" stroke-width="1.5"/>
  <text x="460" y="639" fill="#64748b" font-size="9">SSE response to browser</text>

  <line x1="80" y1="648" x2="105" y2="648" stroke="#f97316" stroke-width="1.5" stroke-dasharray="6,4"/>
  <text x="110" y="651" fill="#64748b" font-size="9">Alibaba Cloud ECS boundary</text>

  <defs>
    <marker id="arr" viewBox="0 0 10 10" refX="9" refY="5" markerWidth="6" markerHeight="6" orient="auto-start-reverse">
      <path d="M 0 0 L 10 5 L 0 10 z" fill="#64748b"/>
    </marker>
    <marker id="arr-green" viewBox="0 0 10 10" refX="9" refY="5" markerWidth="6" markerHeight="6" orient="auto-start-reverse">
      <path d="M 0 0 L 10 5 L 0 10 z" fill="#34d399"/>
    </marker>
    <marker id="arr-gray" viewBox="0 0 10 10" refX="9" refY="5" markerWidth="6" markerHeight="6" orient="auto-start-reverse">
      <path d="M 0 0 L 10 5 L 0 10 z" fill="#475569"/>
    </marker>
    <marker id="arr-teal" viewBox="0 0 10 10" refX="9" refY="5" markerWidth="6" markerHeight="6" orient="auto-start-reverse">
      <path d="M 0 0 L 10 5 L 0 10 z" fill="#26C7C3"/>
    </marker>
  </defs>
</svg>
